<svg width="35" height="33" viewBox="0 0 35 33" fill="none" xmlns="http://www.w3.org/2000/svg">
<path d="M2.89391 8.36354L1.11694 9.33266C0.9008 9.45054 0.662089 9.22996 0.767597 9.00754C3.46968 3.3113 7.89616 0.758038 10.3237 0.0117825C10.5475 -0.0570376 10.7131 0.189886 10.5793 0.382122L9.06068 2.56487C8.9666 2.70009 9.02027 2.88747 9.171 2.95397C9.96938 3.30623 11.3367 3.96276 12.4705 4.66774C12.6706 4.79213 12.6024 5.09252 12.3704 5.13331C9.83748 5.57852 7.8677 6.40759 7.11197 6.81654C7.07994 6.83387 7.05375 6.85669 7.03225 6.88609C6.53613 7.56446 5.42238 9.45499 4.45567 12.2136C4.37408 12.4464 4.04614 12.4496 3.97236 12.2143C3.48628 10.6635 3.32857 9.36549 3.30388 8.6086C3.29722 8.4044 3.0733 8.26571 2.89391 8.36354Z" fill="#0019A9"/>
<path d="M25.5254 3.37536L22.5157 5.86589C22.3286 6.02064 22.4383 6.32687 22.681 6.33202C26.1267 6.40517 27.955 6.99437 28.5137 7.32663C28.5499 7.34815 28.5784 7.37999 28.5985 7.41696L31.365 12.5066C31.4901 12.7367 31.8386 12.6571 31.8514 12.3956L32.0534 8.25469C32.0602 8.1167 32.1737 8.00687 32.3118 8.01158C32.6367 8.02267 33.1266 8.07088 33.7566 8.2805C34.0087 8.36437 34.2588 8.06644 34.1078 7.84789C31.9413 4.7125 30.1495 2.78325 29.418 2.11574C29.3714 2.07319 29.3103 2.0503 29.2472 2.0503H28.114C28.0718 2.0503 28.0305 2.04007 27.9931 2.02039C26.6616 1.31987 25.0633 0.627659 23.9785 0.18553C23.7365 0.0869069 23.5266 0.367506 23.6859 0.574595L25.5656 3.01786C25.6507 3.12841 25.6329 3.28644 25.5254 3.37536Z" fill="#0019A9"/>
<path d="M17.2995 12.1007L11.5429 9.75137C11.3484 9.67201 11.1453 9.84483 11.1925 10.0495L12.6066 16.1763C12.6243 16.253 12.6062 16.3335 12.5574 16.3953L8.54686 21.4667C8.41534 21.6331 8.52842 21.8783 8.74031 21.8863L14.9557 22.1208C15.0431 22.1241 15.123 22.1713 15.1681 22.2464L18.6984 28.1295C18.8113 28.3176 19.0922 28.2891 19.165 28.0822L21.3947 21.746C21.4248 21.6604 21.4976 21.5967 21.5866 21.5783L28.4016 20.1685C28.6189 20.1236 28.6828 19.8441 28.5067 19.7092L22.979 15.4759C22.9098 15.4229 22.8719 15.3387 22.8781 15.2517L23.3485 8.66829C23.3638 8.45288 23.1244 8.31433 22.9452 8.43502L17.5422 12.0757C17.4706 12.124 17.3795 12.1334 17.2995 12.1007Z" fill="#0019A9"/>
<path d="M2.09669 23.7383L0.455607 21.8513C0.273278 21.6417 -0.0664115 21.8271 0.0113908 22.0939L1.48244 27.1368C1.49029 27.1637 1.50229 27.1889 1.51837 27.2119C3.59486 30.1793 7.192 33.1329 6.67584 32.4878C6.34373 32.0727 6.15574 31.3527 6.07192 30.8608C6.04428 30.6986 6.18197 30.5616 6.34556 30.5793L9.88985 30.9624C10.1512 30.9906 10.2836 30.6567 10.074 30.4982L5.61282 27.1256C5.54806 27.0766 5.51 27.0002 5.51 26.919V21.5507C5.51 21.3251 5.24157 21.2073 5.07551 21.3601L2.46761 23.759C2.36021 23.8578 2.19245 23.8484 2.09669 23.7383Z" fill="#0019A9"/>
</svg>
