<svg width="33" height="32" viewBox="0 0 33 32" fill="none" xmlns="http://www.w3.org/2000/svg">
<path d="M2.78523 8.04946L1.075 8.98218C0.866971 9.09564 0.637225 8.88334 0.738771 8.66927C3.33938 3.18695 7.59963 0.729571 9.93596 0.01134C10.1514 -0.0548956 10.3107 0.182755 10.182 0.367772L8.72041 2.46855C8.62986 2.59869 8.68152 2.77904 8.82659 2.84304C9.59499 3.18207 10.911 3.81394 12.0022 4.49244C12.1948 4.61216 12.1292 4.90128 11.9059 4.94053C9.46805 5.36903 7.57223 6.16696 6.84489 6.56055C6.81406 6.57723 6.78885 6.5992 6.76816 6.62749C6.29067 7.28039 5.21874 9.09991 4.28834 11.7549C4.20982 11.979 3.89419 11.9821 3.82318 11.7556C3.35536 10.263 3.20357 9.01378 3.17981 8.28531C3.17339 8.08878 2.95788 7.9553 2.78523 8.04946Z" fill="#0057FF"/>
<path d="M24.5669 3.2486L21.6701 5.6456C21.4901 5.79454 21.5957 6.08927 21.8292 6.09423C25.1456 6.16463 26.9052 6.73171 27.4429 7.05149C27.4777 7.07219 27.5052 7.10284 27.5245 7.13843L30.1871 12.037C30.3075 12.2584 30.643 12.1818 30.6553 11.9301L30.8497 7.9447C30.8562 7.81188 30.9654 7.70618 31.0984 7.71072C31.4111 7.72139 31.8826 7.76779 32.4889 7.96953C32.7315 8.05025 32.9723 7.76352 32.8269 7.55317C30.7418 4.53552 29.0173 2.67873 28.3132 2.03629C28.2684 1.99534 28.2096 1.9733 28.1489 1.9733H27.0582C27.0175 1.9733 26.9778 1.96346 26.9418 1.94452C25.6603 1.2703 24.122 0.604088 23.078 0.178562C22.8451 0.0836431 22.6431 0.353705 22.7964 0.553017L24.6055 2.90453C24.6874 3.01092 24.6703 3.16302 24.5669 3.2486Z" fill="#0057FF"/>
<path d="M16.6499 11.6463L11.1094 9.38517C10.9223 9.30879 10.7268 9.47512 10.7722 9.67205L12.1332 15.5689C12.1502 15.6426 12.1328 15.7202 12.0858 15.7796L8.22589 20.6606C8.09931 20.8206 8.20814 21.0567 8.41208 21.0644L14.394 21.2901C14.4782 21.2932 14.5551 21.3387 14.5984 21.4109L17.9962 27.0732C18.1048 27.2541 18.3752 27.2267 18.4453 27.0276L20.5912 20.9294C20.6202 20.8469 20.6903 20.7857 20.7759 20.768L27.335 19.4111C27.5441 19.3679 27.6057 19.0989 27.4361 18.9691L22.1161 14.8947C22.0495 14.8437 22.013 14.7626 22.019 14.679L22.4716 8.34276C22.4864 8.13544 22.2559 8.0021 22.0836 8.11825L16.8835 11.6222C16.8145 11.6687 16.7269 11.6777 16.6499 11.6463Z" fill="#0057FF"/>
<path d="M2.01795 22.8469L0.438497 21.0307C0.263015 20.829 -0.0639174 21.0074 0.010963 21.2641L1.42676 26.1177C1.43432 26.1436 1.44588 26.1679 1.46135 26.19C3.45986 29.046 6.92191 31.8886 6.42514 31.2677C6.10549 30.8682 5.92457 30.1753 5.84389 29.7019C5.81729 29.5458 5.94981 29.4139 6.10725 29.4309L9.51845 29.7996C9.76997 29.8268 9.89743 29.5054 9.69563 29.3529L5.40204 26.1069C5.33971 26.0598 5.30307 25.9862 5.30307 25.9081V20.7414C5.30307 20.5242 5.04473 20.4109 4.8849 20.5579L2.37494 22.8668C2.27158 22.9618 2.11011 22.9528 2.01795 22.8469Z" fill="#0057FF"/>
</svg>
