<svg width="148" height="32" viewBox="0 0 148 32" fill="none" xmlns="http://www.w3.org/2000/svg">
<path d="M53.7275 8.448C52.4635 8.448 51.8315 9.136 51.8315 10.512V11.28H55.3595V13.68H51.9035V24H48.9035V10.464C48.9035 9.104 49.3035 8.024 50.1035 7.224C50.9035 6.424 52.0395 6.024 53.5115 6.024C54.6475 6.024 55.5435 6.256 56.1995 6.72L55.3595 8.976C54.8795 8.624 54.3355 8.448 53.7275 8.448ZM69.7724 11.184V24H66.9164V22.368C66.4364 22.944 65.8364 23.392 65.1164 23.712C64.3964 24.016 63.6204 24.168 62.7884 24.168C61.0764 24.168 59.7244 23.696 58.7324 22.752C57.7564 21.792 57.2684 20.376 57.2684 18.504V11.184H60.2684V18.096C60.2684 19.248 60.5244 20.112 61.0364 20.688C61.5644 21.248 62.3084 21.528 63.2684 21.528C64.3404 21.528 65.1884 21.2 65.8124 20.544C66.4524 19.872 66.7724 18.912 66.7724 17.664V11.184H69.7724ZM80.9004 23.304C80.5484 23.592 80.1164 23.808 79.6044 23.952C79.1084 24.096 78.5804 24.168 78.0204 24.168C76.6124 24.168 75.5244 23.8 74.7564 23.064C73.9884 22.328 73.6044 21.256 73.6044 19.848V8.352H76.6044V11.28H80.0364V13.68H76.6044V19.776C76.6044 20.4 76.7564 20.88 77.0604 21.216C77.3804 21.536 77.8204 21.696 78.3804 21.696C79.0524 21.696 79.6124 21.52 80.0604 21.168L80.9004 23.304ZM88.8382 24.168C87.5102 24.168 86.3182 23.888 85.2622 23.328C84.2062 22.768 83.3822 21.992 82.7902 21C82.1982 19.992 81.9022 18.856 81.9022 17.592C81.9022 16.328 82.1982 15.2 82.7902 14.208C83.3822 13.216 84.1982 12.44 85.2382 11.88C86.2942 11.32 87.4942 11.04 88.8382 11.04C90.1022 11.04 91.2062 11.296 92.1502 11.808C93.1102 12.32 93.8302 13.056 94.3102 14.016L92.0062 15.36C91.6382 14.768 91.1742 14.328 90.6142 14.04C90.0702 13.736 89.4702 13.584 88.8142 13.584C87.6942 13.584 86.7662 13.952 86.0302 14.688C85.2942 15.408 84.9262 16.376 84.9262 17.592C84.9262 18.808 85.2862 19.784 86.0062 20.52C86.7422 21.24 87.6782 21.6 88.8142 21.6C89.4702 21.6 90.0702 21.456 90.6142 21.168C91.1742 20.864 91.6382 20.416 92.0062 19.824L94.3102 21.168C93.8142 22.128 93.0862 22.872 92.1262 23.4C91.1822 23.912 90.0862 24.168 88.8382 24.168ZM104.058 11.04C105.674 11.04 106.97 11.512 107.946 12.456C108.922 13.4 109.41 14.8 109.41 16.656V24H106.41V17.04C106.41 15.92 106.146 15.08 105.618 14.52C105.09 13.944 104.338 13.656 103.362 13.656C102.258 13.656 101.386 13.992 100.746 14.664C100.106 15.32 99.7863 16.272 99.7863 17.52V24H96.7863V6.192H99.7863V12.672C100.282 12.144 100.89 11.744 101.61 11.472C102.346 11.184 103.162 11.04 104.058 11.04ZM125.861 11.184V24H123.005V22.344C122.509 22.952 121.893 23.408 121.157 23.712C120.437 24.016 119.637 24.168 118.757 24.168C117.509 24.168 116.389 23.896 115.397 23.352C114.421 22.808 113.653 22.04 113.093 21.048C112.549 20.056 112.277 18.904 112.277 17.592C112.277 16.28 112.549 15.136 113.093 14.16C113.653 13.168 114.421 12.4 115.397 11.856C116.389 11.312 117.509 11.04 118.757 11.04C119.589 11.04 120.349 11.184 121.037 11.472C121.741 11.76 122.349 12.184 122.861 12.744V11.184H125.861ZM119.093 21.6C120.197 21.6 121.109 21.232 121.829 20.496C122.549 19.76 122.909 18.792 122.909 17.592C122.909 16.392 122.549 15.424 121.829 14.688C121.109 13.952 120.197 13.584 119.093 13.584C117.989 13.584 117.077 13.952 116.357 14.688C115.653 15.424 115.301 16.392 115.301 17.592C115.301 18.792 115.653 19.76 116.357 20.496C117.077 21.232 117.989 21.6 119.093 21.6ZM132.642 13.056C133.506 11.712 135.026 11.04 137.202 11.04V13.896C136.946 13.848 136.714 13.824 136.506 13.824C135.338 13.824 134.426 14.168 133.77 14.856C133.114 15.528 132.786 16.504 132.786 17.784V24H129.786V11.184H132.642V13.056ZM146.947 23.304C146.595 23.592 146.163 23.808 145.651 23.952C145.155 24.096 144.627 24.168 144.067 24.168C142.659 24.168 141.571 23.8 140.803 23.064C140.035 22.328 139.651 21.256 139.651 19.848V8.352H142.651V11.28H146.083V13.68H142.651V19.776C142.651 20.4 142.803 20.88 143.107 21.216C143.427 21.536 143.867 21.696 144.427 21.696C145.099 21.696 145.659 21.52 146.107 21.168L146.947 23.304Z" fill="white"/>
<path d="M2.78523 8.04946L1.075 8.98218C0.866971 9.09564 0.637225 8.88334 0.738771 8.66927C3.33938 3.18695 7.59963 0.729571 9.93596 0.01134C10.1514 -0.0548956 10.3107 0.182755 10.182 0.367772L8.72041 2.46855C8.62986 2.59869 8.68152 2.77904 8.82659 2.84304C9.59499 3.18207 10.911 3.81394 12.0022 4.49244C12.1948 4.61216 12.1292 4.90128 11.9059 4.94053C9.46805 5.36903 7.57223 6.16696 6.84489 6.56055C6.81406 6.57723 6.78885 6.5992 6.76816 6.62749C6.29067 7.28039 5.21874 9.09991 4.28834 11.7549C4.20982 11.979 3.89419 11.9821 3.82318 11.7556C3.35536 10.263 3.20357 9.01378 3.17981 8.28531C3.17339 8.08878 2.95788 7.9553 2.78523 8.04946Z" fill="white"/>
<path d="M24.5669 3.2486L21.6701 5.6456C21.4901 5.79454 21.5957 6.08927 21.8292 6.09423C25.1456 6.16463 26.9052 6.73171 27.4429 7.05149C27.4777 7.07219 27.5052 7.10284 27.5245 7.13843L30.1871 12.037C30.3075 12.2584 30.643 12.1818 30.6553 11.9301L30.8497 7.9447C30.8562 7.81188 30.9654 7.70618 31.0984 7.71072C31.4111 7.72139 31.8826 7.76779 32.4889 7.96953C32.7315 8.05025 32.9723 7.76352 32.8269 7.55317C30.7418 4.53552 29.0173 2.67873 28.3132 2.03629C28.2684 1.99534 28.2096 1.9733 28.1489 1.9733H27.0582C27.0175 1.9733 26.9778 1.96346 26.9418 1.94452C25.6603 1.2703 24.122 0.604088 23.078 0.178562C22.8451 0.0836431 22.6431 0.353705 22.7964 0.553017L24.6055 2.90453C24.6874 3.01092 24.6703 3.16302 24.5669 3.2486Z" fill="white"/>
<path d="M16.6499 11.6463L11.1094 9.38517C10.9223 9.30879 10.7268 9.47512 10.7722 9.67205L12.1332 15.5689C12.1502 15.6426 12.1328 15.7202 12.0858 15.7796L8.22589 20.6606C8.09931 20.8206 8.20814 21.0567 8.41208 21.0644L14.394 21.2901C14.4782 21.2932 14.5551 21.3387 14.5984 21.4109L17.9962 27.0732C18.1048 27.2541 18.3752 27.2267 18.4453 27.0276L20.5912 20.9294C20.6202 20.8469 20.6903 20.7857 20.7759 20.768L27.335 19.4111C27.5441 19.3679 27.6057 19.0989 27.4361 18.9691L22.1161 14.8947C22.0495 14.8437 22.013 14.7626 22.019 14.679L22.4716 8.34276C22.4864 8.13544 22.2559 8.0021 22.0836 8.11825L16.8835 11.6222C16.8145 11.6687 16.7269 11.6777 16.6499 11.6463Z" fill="white"/>
<path d="M2.01795 22.8469L0.438497 21.0307C0.263015 20.829 -0.0639174 21.0074 0.010963 21.2641L1.42676 26.1177C1.43432 26.1436 1.44588 26.1679 1.46135 26.19C3.45986 29.046 6.92191 31.8886 6.42514 31.2677C6.10549 30.8682 5.92457 30.1753 5.84389 29.7019C5.81729 29.5458 5.94981 29.4139 6.10725 29.4309L9.51845 29.7996C9.76997 29.8268 9.89743 29.5054 9.69563 29.3529L5.40204 26.1069C5.33971 26.0598 5.30307 25.9862 5.30307 25.9081V20.7414C5.30307 20.5242 5.04473 20.4109 4.8849 20.5579L2.37494 22.8668C2.27158 22.9618 2.11011 22.9528 2.01795 22.8469Z" fill="white"/>
</svg>
